<svg width="99" height="101" viewBox="0 0 99 101" fill="none" xmlns="http://www.w3.org/2000/svg">
<path d="M33.5545 22.9527C17.5678 32.979 12.7359 54.0667 22.7622 70.0534C32.7885 86.0401 53.8762 90.8719 69.8629 80.8456C85.8496 70.8193 90.6814 49.7316 80.6551 33.745C70.6288 17.7583 49.5411 12.9264 33.5545 22.9527Z" fill="#0CA68E"/>
<path fill-rule="evenodd" clip-rule="evenodd" d="M24.4566 68.9907C15.0171 53.9398 19.5662 34.0865 34.6171 24.6471C49.668 15.2076 69.5214 19.7567 78.9608 34.8076C88.4002 49.8585 83.8512 69.7119 68.8002 79.1513C53.7493 88.5907 33.896 84.0417 24.4566 68.9907ZM22.7622 70.0534C12.7359 54.0667 17.5678 32.979 33.5545 22.9527C49.5411 12.9264 70.6288 17.7583 80.6551 33.745C90.6814 49.7316 85.8496 70.8193 69.8629 80.8456C53.8762 90.8719 32.7885 86.0401 22.7622 70.0534Z" fill="black"/>
<path d="M28.9466 19.1578C12.9599 29.1841 8.12801 50.2718 18.1543 66.2584C28.1806 82.2451 49.2683 87.077 65.255 77.0507C81.2416 67.0244 86.0735 45.9367 76.0472 29.95C66.0209 13.9633 44.9332 9.1315 28.9466 19.1578Z" fill="#10BEA3"/>
<path fill-rule="evenodd" clip-rule="evenodd" d="M19.8486 65.1958C10.4092 50.1449 14.9583 30.2915 30.0092 20.8521C45.0601 11.4127 64.9135 15.9617 74.3529 31.0127C83.7923 46.0636 79.2433 65.9169 64.1923 75.3563C49.1414 84.7958 29.2881 80.2467 19.8486 65.1958ZM18.1543 66.2584C8.12801 50.2718 12.9599 29.1841 28.9466 19.1578C44.9332 9.1315 66.0209 13.9633 76.0472 29.95C86.0735 45.9367 81.2416 67.0244 65.255 77.0507C49.2683 87.077 28.1806 82.2451 18.1543 66.2584Z" fill="black"/>
<path fill-rule="evenodd" clip-rule="evenodd" d="M22.1133 25.6723L75.6825 65.6093L76.8779 64.0059L23.3087 24.0689L22.1133 25.6723Z" fill="black"/>
<path fill-rule="evenodd" clip-rule="evenodd" d="M19.0765 29.3579L72.6457 69.2948L73.8411 67.6914L20.2719 27.7544L19.0765 29.3579Z" fill="black"/>
</svg>
