<svg width="153" height="389" viewBox="0 0 153 389" fill="none" xmlns="http://www.w3.org/2000/svg">
<circle cx="26.3125" cy="183.818" r="22.0705" transform="rotate(-180 26.3125 183.818)" fill="#E3CF78" stroke="black"/>
<circle cx="22.5706" cy="182.572" r="22.0705" transform="rotate(-180 22.5706 182.572)" fill="#E2DB11" stroke="black"/>
<line x1="42.2174" y1="192.89" x2="1.06673" y2="176.929" stroke="black"/>
<line x1="43.1732" y1="190.079" x2="2.02254" y2="174.118" stroke="black"/>
<circle cx="121.447" cy="34.5861" r="22.0705" transform="rotate(-150 121.447 34.5861)" fill="#E3CF78" stroke="black"/>
<circle cx="118.83" cy="31.6349" r="22.0705" transform="rotate(-150 118.83 31.6349)" fill="#E2DB11" stroke="black"/>
<line x1="130.686" y1="50.3934" x2="103.029" y2="15.995" stroke="black"/>
<line x1="132.918" y1="48.4403" x2="105.261" y2="14.0419" stroke="black"/>
<circle cx="120.359" cy="353.654" r="22.0705" transform="rotate(135 120.359 353.654)" fill="#E3CF78" stroke="black"/>
<circle cx="116.831" cy="355.42" r="22.0705" transform="rotate(135 116.831 355.42)" fill="#E2DB11" stroke="black"/>
<line x1="138.02" y1="348.823" x2="97.6353" y2="366.634" stroke="black"/>
<line x1="136.709" y1="346.159" x2="96.325" y2="363.97" stroke="black"/>
</svg>
