<svg width="78" height="155" viewBox="0 0 78 155" fill="none" xmlns="http://www.w3.org/2000/svg">
<path d="M26.9902 122.102C26.9902 139.32 40.9476 153.277 58.1649 153.277C75.3822 153.277 89.3396 139.32 89.3396 122.102C89.3396 104.885 75.3822 90.9277 58.1649 90.9277C40.9476 90.9277 26.9902 104.885 26.9902 122.102Z" fill="#0CA68E"/>
<path fill-rule="evenodd" clip-rule="evenodd" d="M58.1649 151.452C41.9554 151.452 28.815 138.312 28.815 122.102C28.815 105.893 41.9554 92.7525 58.1649 92.7525C74.3744 92.7525 87.5148 105.893 87.5148 122.102C87.5148 138.312 74.3744 151.452 58.1649 151.452ZM58.1649 153.277C40.9476 153.277 26.9902 139.32 26.9902 122.102C26.9902 104.885 40.9476 90.9277 58.1649 90.9277C75.3822 90.9277 89.3396 104.885 89.3396 122.102C89.3396 139.32 75.3822 153.277 58.1649 153.277Z" fill="black"/>
<path d="M21.823 123.825C21.823 141.042 35.7804 155 52.9977 155C70.215 155 84.1724 141.042 84.1724 123.825C84.1724 106.608 70.215 92.6504 52.9977 92.6504C35.7804 92.6504 21.823 106.608 21.823 123.825Z" fill="#10BEA3"/>
<path fill-rule="evenodd" clip-rule="evenodd" d="M52.9977 153.175C36.7882 153.175 23.6478 140.035 23.6478 123.825C23.6478 107.616 36.7882 94.4752 52.9977 94.4752C69.2072 94.4752 82.3476 107.616 82.3476 123.825C82.3476 140.035 69.2072 153.175 52.9977 153.175ZM52.9977 155C35.7804 155 21.823 141.042 21.823 123.825C21.823 106.608 35.7804 92.6504 52.9977 92.6504C70.215 92.6504 84.1724 106.608 84.1724 123.825C84.1724 141.042 70.215 155 52.9977 155Z" fill="black"/>
<path fill-rule="evenodd" clip-rule="evenodd" d="M23.5457 132.265L80.3835 110.219L79.7236 108.518L22.8858 130.564L23.5457 132.265Z" fill="black"/>
<path fill-rule="evenodd" clip-rule="evenodd" d="M24.9231 136.398L81.761 114.352L81.1011 112.65L24.2632 134.697L24.9231 136.398Z" fill="black"/>
<rect x="104.908" y="96.8625" width="111.246" height="48.2221" rx="24.111" transform="rotate(-151.465 104.908 96.8625)" fill="#9859DA" stroke="black" stroke-width="2"/>
<rect x="99.0887" y="99.0422" width="111.246" height="48.2221" rx="24.111" transform="rotate(-151.465 99.0887 99.0422)" fill="#9859DA" stroke="black" stroke-width="2"/>
<line x1="48.8656" y1="72.8719" x2="72.8563" y2="28.7505" stroke="black" stroke-width="2"/>
</svg>
