<svg width="115" height="214" viewBox="0 0 115 214" fill="none" xmlns="http://www.w3.org/2000/svg">
<path d="M37.1039 167.856C37.1039 191.525 56.2913 210.712 79.9602 210.712C103.629 210.712 122.816 191.525 122.816 167.856C122.816 144.187 103.629 125 79.9602 125C56.2913 125 37.1039 144.187 37.1039 167.856Z" fill="#0CA68E"/>
<path fill-rule="evenodd" clip-rule="evenodd" d="M79.9602 208.204C57.6767 208.204 39.6125 190.14 39.6125 167.856C39.6125 145.573 57.6767 127.509 79.9602 127.509C102.244 127.509 120.308 145.573 120.308 167.856C120.308 190.14 102.244 208.204 79.9602 208.204ZM79.9602 210.712C56.2913 210.712 37.1039 191.525 37.1039 167.856C37.1039 144.187 56.2913 125 79.9602 125C103.629 125 122.816 144.187 122.816 167.856C122.816 191.525 103.629 210.712 79.9602 210.712Z" fill="black"/>
<path d="M30.0007 170.223C30.0007 193.892 49.1881 213.08 72.8569 213.08C96.5257 213.08 115.713 193.892 115.713 170.223C115.713 146.555 96.5257 127.367 72.8569 127.367C49.1881 127.367 30.0007 146.555 30.0007 170.223Z" fill="#10BEA3"/>
<path fill-rule="evenodd" clip-rule="evenodd" d="M72.8569 210.571C50.5735 210.571 32.5092 192.507 32.5092 170.223C32.5092 147.94 50.5735 129.876 72.8569 129.876C95.1403 129.876 113.205 147.94 113.205 170.223C113.205 192.507 95.1403 210.571 72.8569 210.571ZM72.8569 213.08C49.1881 213.08 30.0007 193.892 30.0007 170.223C30.0007 146.555 49.1881 127.367 72.8569 127.367C96.5257 127.367 115.713 146.555 115.713 170.223C115.713 193.892 96.5257 213.08 72.8569 213.08Z" fill="black"/>
<path fill-rule="evenodd" clip-rule="evenodd" d="M32.3689 181.826L110.505 151.518L109.597 149.18L31.4617 179.487L32.3689 181.826Z" fill="black"/>
<path fill-rule="evenodd" clip-rule="evenodd" d="M34.2622 187.509L112.398 157.202L111.491 154.863L33.355 185.17L34.2622 187.509Z" fill="black"/>
<rect x="143.968" y="132.309" width="151.68" height="65.0409" rx="32.5204" transform="rotate(-151.465 143.968 132.309)" fill="#9859DA" stroke="black" stroke-width="4"/>
<rect x="135.968" y="135.309" width="151.68" height="65.0409" rx="32.5204" transform="rotate(-151.465 135.968 135.309)" fill="#9859DA" stroke="black" stroke-width="4"/>
<line x1="66.627" y1="99.8825" x2="99.6073" y2="39.2282" stroke="black" stroke-width="4"/>
</svg>
