<svg width="377" height="106" viewBox="0 0 377 106" fill="none" xmlns="http://www.w3.org/2000/svg">
<mask id="mask0_1109_394" style="mask-type:alpha" maskUnits="userSpaceOnUse" x="-146" y="0" width="287" height="106">
<rect x="-144.5" y="1.5" width="283.17" height="103" fill="#D9D9D9" stroke="black" stroke-width="3"/>
</mask>
<g mask="url(#mask0_1109_394)">
<path d="M104.298 -11.6875H105.298V-12.6875V-39.4617L227.285 53.4587L105.298 146.379V120.383V119.383H104.298H-20.4633V-11.6875L104.298 -11.6875Z" fill="#10BEA3" stroke="black" stroke-width="2"/>
<path d="M64.5518 -11.6875H65.5518V-12.6875V-39.4617L187.539 53.4587L65.5518 146.379V120.383V119.383H64.5518H-60.2092V-11.6875L64.5518 -11.6875Z" fill="#E2DB11" stroke="black" stroke-width="2"/>
<path d="M24.8063 -11.6875H25.8063V-12.6875V-39.4617L147.793 53.4587L25.8063 146.379V120.383V119.383H24.8063H-99.9547V-11.6875L24.8063 -11.6875Z" fill="#10BEA3" stroke="black" stroke-width="2"/>
<path d="M-14.9398 -11.6875H-13.9398V-12.6875V-39.4617L108.047 53.4587L-13.9398 146.379V120.383V119.383H-14.9398H-139.701V-11.6875L-14.9398 -11.6875Z" fill="#E2DB11" stroke="black" stroke-width="2"/>
<path d="M-54.6852 -11.6875H-53.6852V-12.6875V-39.4617L68.302 53.4587L-53.6852 146.379V120.383V119.383H-54.6852H-179.446V-11.6875L-54.6852 -11.6875Z" fill="#10BEA3" stroke="black" stroke-width="2"/>
<path d="M-94.431 -11.6875H-93.431V-12.6875V-39.4617L28.5562 53.4587L-93.431 146.379V120.383V119.383H-94.431H-219.192V-11.6875L-94.431 -11.6875Z" fill="#E2DB11" stroke="black" stroke-width="2"/>
</g>
<mask id="mask1_1109_394" style="mask-type:alpha" maskUnits="userSpaceOnUse" x="90" y="0" width="287" height="106">
<rect x="92.3303" y="1.5" width="283.17" height="103" fill="#D9D9D9" stroke="black" stroke-width="3"/>
</mask>
<g mask="url(#mask1_1109_394)">
<path d="M341.128 -11.6875H342.128V-12.6875V-39.4617L464.115 53.4587L342.128 146.379V120.383V119.383H341.128H216.367V-11.6875L341.128 -11.6875Z" fill="#10BEA3" stroke="black" stroke-width="2"/>
<path d="M301.382 -11.6875H302.382V-12.6875V-39.4617L424.369 53.4587L302.382 146.379V120.383V119.383H301.382H176.621V-11.6875L301.382 -11.6875Z" fill="#E2DB11" stroke="black" stroke-width="2"/>
<path d="M261.636 -11.6875H262.636V-12.6875V-39.4617L384.624 53.4587L262.636 146.379V120.383V119.383H261.636H136.875V-11.6875L261.636 -11.6875Z" fill="#10BEA3" stroke="black" stroke-width="2"/>
<path d="M221.89 -11.6875H222.89V-12.6875V-39.4617L344.878 53.4587L222.89 146.379V120.383V119.383H221.89H97.1295V-11.6875L221.89 -11.6875Z" fill="#E2DB11" stroke="black" stroke-width="2"/>
<path d="M182.145 -11.6875H183.145V-12.6875V-39.4617L305.132 53.4587L183.145 146.379V120.383V119.383H182.145H57.3841V-11.6875L182.145 -11.6875Z" fill="#10BEA3" stroke="black" stroke-width="2"/>
<path d="M142.399 -11.6875H143.399V-12.6875V-39.4617L265.386 53.4587L143.399 146.379V120.383V119.383H142.399H17.6383V-11.6875L142.399 -11.6875Z" fill="#E2DB11" stroke="black" stroke-width="2"/>
<path d="M102.653 -11.6875H103.653V-12.6875V-39.4617L225.641 53.4587L103.653 146.379V120.383V119.383H102.653H-22.1076V-11.6875L102.653 -11.6875Z" fill="#10BEA3" stroke="black" stroke-width="2"/>
<path d="M62.9076 -11.6875H63.9076V-12.6875V-39.4617L185.895 53.4587L63.9076 146.379V120.383V119.383H62.9076H-61.8534V-11.6875L62.9076 -11.6875Z" fill="#E2DB11" stroke="black" stroke-width="2"/>
<path d="M23.1617 -11.6875H24.1617V-12.6875V-39.4617L146.149 53.4587L24.1617 146.379V120.383V119.383H23.1617H-101.599V-11.6875L23.1617 -11.6875Z" fill="#10BEA3" stroke="black" stroke-width="2"/>
<path d="M-16.5841 -11.6875H-15.5841V-12.6875V-39.4617L106.403 53.4587L-15.5841 146.379V120.383V119.383H-16.5841H-141.345V-11.6875L-16.5841 -11.6875Z" fill="#E2DB11" stroke="black" stroke-width="2"/>
</g>
<rect x="-144.5" y="1.5" width="520" height="103" stroke="black" stroke-width="3"/>
</svg>
